solid csg.js
facet normal 0 0 1
outer loop
vertex 10 -10 10
vertex 10 10 10
vertex -10 10 10
endloop
endfacet
facet normal 0 0 1
outer loop
vertex 10 -10 10
vertex -10 10 10
vertex -10 -10 10
endloop
endfacet
facet normal 0 0 1
outer loop
vertex 40 -10 10
vertex 40 10 10
vertex 20 10 10
endloop
endfacet
facet normal 0 0 1
outer loop
vertex 40 -10 10
vertex 20 10 10
vertex 20 -10 10
endloop
endfacet
facet normal -1 0 0
outer loop
vertex -10 -10.000000000000002 5
vertex -10 -10 10
vertex -10 10 10
endloop
endfacet
facet normal -1 0 0
outer loop
vertex -10 -10.000000000000002 5
vertex -10 10 10
vertex -10.000000000000002 9.999999999999998 5
endloop
endfacet
facet normal 1 0 0
outer loop
vertex 10 -10 5
vertex 9.999999999999998 10 5
vertex 10 10 10
endloop
endfacet
facet normal 1 0 0
outer loop
vertex 10 -10 5
vertex 10 10 10
vertex 10 -10 10
endloop
endfacet
facet normal 0 -1 0
outer loop
vertex 10 -10 5
vertex 10 -10 10
vertex -10 -10 10
endloop
endfacet
facet normal 0 -1 0
outer loop
vertex 10 -10 5
vertex -10 -10 10
vertex -10 -10.000000000000002 5
endloop
endfacet
facet normal 0 -1 0
outer loop
vertex 40 -10 -10
vertex 40 -10 10
vertex 20 -10 10
endloop
endfacet
facet normal 0 -1 0
outer loop
vertex 40 -10 -10
vertex 20 -10 10
vertex 20 -10 -10
endloop
endfacet
facet normal 0 1 0
outer loop
vertex 10 10 10
vertex 9.999999999999998 10 5
vertex -10.000000000000002 9.999999999999998 5
endloop
endfacet
facet normal 0 1 0
outer loop
vertex 10 10 10
vertex -10.000000000000002 9.999999999999998 5
vertex -10 10 10
endloop
endfacet
facet normal 0 1 0
outer loop
vertex 40 10 10
vertex 40 10 -10
vertex 20 10 -10
endloop
endfacet
facet normal 0 1 0
outer loop
vertex 40 10 10
vertex 20 10 -10
vertex 20 10 10
endloop
endfacet
facet normal -0.9351131265310293 0.2505628070857316 -0.2505628070857315
outer loop
vertex 3 0 5
vertex 2.598076211353316 -1.4999999999999998 5
vertex 2.25 -1.2990381056766578 6.5
endloop
endfacet
facet normal -0.9351131265310293 0.2505628070857316 -0.2505628070857315
outer loop
vertex 3 0 5
vertex 2.25 -1.2990381056766578 6.5
vertex 2.598076211353316 0 6.5
endloop
endfacet
facet normal -0.6947465906068659 0.18615678789738518 -0.6947465906068655
outer loop
vertex 2.598076211353316 0 6.5
vertex 2.25 -1.2990381056766578 6.5
vertex 1.2990381056766582 -0.75 7.598076211353316
endloop
endfacet
facet normal -0.6947465906068659 0.18615678789738518 -0.6947465906068655
outer loop
vertex 2.598076211353316 0 6.5
vertex 1.2990381056766582 -0.75 7.598076211353316
vertex 1.5000000000000004 0 7.598076211353316
endloop
endfacet
facet normal -0.2581988897471614 0.06918418399436409 -0.9636113749942802
outer loop
vertex 1.5000000000000004 0 7.598076211353316
vertex 1.2990381056766582 -0.75 7.598076211353316
vertex 1.8369701987210297e-16 0 8
endloop
endfacet
facet normal -0.6845503194452981 0.6845503194452975 -0.25056280708573164
outer loop
vertex 2.598076211353316 -1.4999999999999998 5
vertex 1.5000000000000004 -2.598076211353316 5
vertex 1.2990381056766584 -2.25 6.5
endloop
endfacet
facet normal -0.6845503194452981 0.6845503194452975 -0.25056280708573164
outer loop
vertex 2.598076211353316 -1.4999999999999998 5
vertex 1.2990381056766584 -2.25 6.5
vertex 2.25 -1.2990381056766578 6.5
endloop
endfacet
facet normal -0.5085898027094807 0.5085898027094803 -0.6947465906068653
outer loop
vertex 2.25 -1.2990381056766578 6.5
vertex 1.2990381056766584 -2.25 6.5
vertex 0.7500000000000004 -1.2990381056766582 7.598076211353316
endloop
endfacet
facet normal -0.5085898027094807 0.5085898027094803 -0.6947465906068653
outer loop
vertex 2.25 -1.2990381056766578 6.5
vertex 0.7500000000000004 -1.2990381056766582 7.598076211353316
vertex 1.2990381056766582 -0.75 7.598076211353316
endloop
endfacet
facet normal -0.18901470575279689 0.18901470575279591 -0.9636113749942803
outer loop
vertex 1.2990381056766582 -0.75 7.598076211353316
vertex 0.7500000000000004 -1.2990381056766582 7.598076211353316
vertex 1.8369701987210297e-16 0 8
endloop
endfacet
facet normal -0.2505628070857316 0.9351131265310294 -0.25056280708573153
outer loop
vertex 1.5000000000000004 -2.598076211353316 5
vertex 1.8369701987210297e-16 -3 5
vertex 1.5908628580873602e-16 -2.598076211353316 6.5
endloop
endfacet
facet normal -0.2505628070857316 0.9351131265310294 -0.25056280708573153
outer loop
vertex 1.5000000000000004 -2.598076211353316 5
vertex 1.5908628580873602e-16 -2.598076211353316 6.5
vertex 1.2990381056766584 -2.25 6.5
endloop
endfacet
facet normal -0.18615678789738574 0.6947465906068659 -0.6947465906068655
outer loop
vertex 1.2990381056766584 -2.25 6.5
vertex 1.5908628580873602e-16 -2.598076211353316 6.5
vertex 9.184850993605151e-17 -1.5000000000000004 7.598076211353316
endloop
endfacet
facet normal -0.18615678789738574 0.6947465906068659 -0.6947465906068655
outer loop
vertex 1.2990381056766584 -2.25 6.5
vertex 9.184850993605151e-17 -1.5000000000000004 7.598076211353316
vertex 0.7500000000000004 -1.2990381056766582 7.598076211353316
endloop
endfacet
facet normal -0.06918418399436499 0.2581988897471606 -0.9636113749942803
outer loop
vertex 0.7500000000000004 -1.2990381056766582 7.598076211353316
vertex 9.184850993605151e-17 -1.5000000000000004 7.598076211353316
vertex 1.8369701987210297e-16 0 8
endloop
endfacet
facet normal 0.2505628070857316 0.9351131265310293 -0.2505628070857315
outer loop
vertex 1.8369701987210297e-16 -3 5
vertex -1.4999999999999993 -2.598076211353316 5
vertex -1.2990381056766576 -2.25 6.5
endloop
endfacet
facet normal 0.2505628070857316 0.9351131265310293 -0.2505628070857315
outer loop
vertex 1.8369701987210297e-16 -3 5
vertex -1.2990381056766576 -2.25 6.5
vertex 1.5908628580873602e-16 -2.598076211353316 6.5
endloop
endfacet
facet normal 0.1861567878973858 0.6947465906068659 -0.6947465906068655
outer loop
vertex 1.5908628580873602e-16 -2.598076211353316 6.5
vertex -1.2990381056766576 -2.25 6.5
vertex -0.7499999999999998 -1.2990381056766582 7.598076211353316
endloop
endfacet
facet normal 0.1861567878973858 0.6947465906068659 -0.6947465906068655
outer loop
vertex 1.5908628580873602e-16 -2.598076211353316 6.5
vertex -0.7499999999999998 -1.2990381056766582 7.598076211353316
vertex 9.184850993605151e-17 -1.5000000000000004 7.598076211353316
endloop
endfacet
facet normal 0.06918418399436409 0.25819888974716143 -0.9636113749942802
outer loop
vertex 9.184850993605151e-17 -1.5000000000000004 7.598076211353316
vertex -0.7499999999999998 -1.2990381056766582 7.598076211353316
vertex 1.8369701987210297e-16 0 8
endloop
endfacet
facet normal 0.6845503194452978 0.684550319445298 -0.25056280708573164
outer loop
vertex -1.4999999999999993 -2.598076211353316 5
vertex -2.598076211353316 -1.4999999999999998 5
vertex -2.25 -1.2990381056766578 6.5
endloop
endfacet
facet normal 0.6845503194452978 0.684550319445298 -0.25056280708573164
outer loop
vertex -1.4999999999999993 -2.598076211353316 5
vertex -2.25 -1.2990381056766578 6.5
vertex -1.2990381056766576 -2.25 6.5
endloop
endfacet
facet normal 0.5085898027094804 0.5085898027094802 -0.6947465906068657
outer loop
vertex -1.2990381056766576 -2.25 6.5
vertex -2.25 -1.2990381056766578 6.5
vertex -1.2990381056766582 -0.75 7.598076211353316
endloop
endfacet
facet normal 0.5085898027094804 0.5085898027094802 -0.6947465906068657
outer loop
vertex -1.2990381056766576 -2.25 6.5
vertex -1.2990381056766582 -0.75 7.598076211353316
vertex -0.7499999999999998 -1.2990381056766582 7.598076211353316
endloop
endfacet
facet normal 0.18901470575279594 0.18901470575279689 -0.9636113749942803
outer loop
vertex -0.7499999999999998 -1.2990381056766582 7.598076211353316
vertex -1.2990381056766582 -0.75 7.598076211353316
vertex 1.8369701987210297e-16 0 8
endloop
endfacet
facet normal 0.9351131265310293 0.25056280708573153 -0.2505628070857316
outer loop
vertex -2.598076211353316 -1.4999999999999998 5
vertex -3 -3.6739403974420594e-16 5
vertex -2.598076211353316 -3.1817257161747205e-16 6.5
endloop
endfacet
facet normal 0.9351131265310293 0.25056280708573153 -0.2505628070857316
outer loop
vertex -2.598076211353316 -1.4999999999999998 5
vertex -2.598076211353316 -3.1817257161747205e-16 6.5
vertex -2.25 -1.2990381056766578 6.5
endloop
endfacet
facet normal 0.6947465906068655 0.18615678789738582 -0.694746590606866
outer loop
vertex -2.25 -1.2990381056766578 6.5
vertex -2.598076211353316 -3.1817257161747205e-16 6.5
vertex -1.5000000000000004 -1.8369701987210302e-16 7.598076211353316
endloop
endfacet
facet normal 0.6947465906068655 0.18615678789738582 -0.694746590606866
outer loop
vertex -2.25 -1.2990381056766578 6.5
vertex -1.5000000000000004 -1.8369701987210302e-16 7.598076211353316
vertex -1.2990381056766582 -0.75 7.598076211353316
endloop
endfacet
facet normal 0.25819888974716143 0.06918418399436412 -0.9636113749942801
outer loop
vertex -1.2990381056766582 -0.75 7.598076211353316
vertex -1.5000000000000004 -1.8369701987210302e-16 7.598076211353316
vertex 1.8369701987210297e-16 0 8
endloop
endfacet
facet normal 0.9351131265310294 -0.2505628070857313 -0.25056280708573153
outer loop
vertex -3 -3.6739403974420594e-16 5
vertex -2.5980762113533165 1.4999999999999991 5
vertex -2.2500000000000004 1.2990381056766573 6.5
endloop
endfacet
facet normal 0.9351131265310294 -0.2505628070857313 -0.25056280708573153
outer loop
vertex -3 -3.6739403974420594e-16 5
vertex -2.2500000000000004 1.2990381056766573 6.5
vertex -2.598076211353316 -3.1817257161747205e-16 6.5
endloop
endfacet
facet normal 0.6947465906068659 -0.1861567878973858 -0.6947465906068655
outer loop
vertex -2.598076211353316 -3.1817257161747205e-16 6.5
vertex -2.2500000000000004 1.2990381056766573 6.5
vertex -1.2990381056766584 0.7499999999999997 7.598076211353316
endloop
endfacet
facet normal 0.6947465906068659 -0.1861567878973858 -0.6947465906068655
outer loop
vertex -2.598076211353316 -3.1817257161747205e-16 6.5
vertex -1.2990381056766584 0.7499999999999997 7.598076211353316
vertex -1.5000000000000004 -1.8369701987210302e-16 7.598076211353316
endloop
endfacet
facet normal 0.2581988897471614 -0.0691841839943641 -0.9636113749942801
outer loop
vertex -1.5000000000000004 -1.8369701987210302e-16 7.598076211353316
vertex -1.2990381056766584 0.7499999999999997 7.598076211353316
vertex 1.8369701987210297e-16 0 8
endloop
endfacet
facet normal 0.6845503194452982 -0.6845503194452973 -0.25056280708573164
outer loop
vertex -2.5980762113533165 1.4999999999999991 5
vertex -1.5000000000000013 2.598076211353315 5
vertex -1.2990381056766591 2.2499999999999996 6.5
endloop
endfacet
facet normal 0.6845503194452982 -0.6845503194452973 -0.25056280708573164
outer loop
vertex -2.5980762113533165 1.4999999999999991 5
vertex -1.2990381056766591 2.2499999999999996 6.5
vertex -2.2500000000000004 1.2990381056766573 6.5
endloop
endfacet
facet normal 0.5085898027094811 -0.5085898027094794 -0.6947465906068658
outer loop
vertex -2.2500000000000004 1.2990381056766573 6.5
vertex -1.2990381056766591 2.2499999999999996 6.5
vertex -0.7500000000000009 1.2990381056766578 7.598076211353316
endloop
endfacet
facet normal 0.5085898027094811 -0.5085898027094794 -0.6947465906068658
outer loop
vertex -2.2500000000000004 1.2990381056766573 6.5
vertex -0.7500000000000009 1.2990381056766578 7.598076211353316
vertex -1.2990381056766584 0.7499999999999997 7.598076211353316
endloop
endfacet
facet normal 0.1890147057527969 -0.18901470575279683 -0.9636113749942802
outer loop
vertex -1.2990381056766584 0.7499999999999997 7.598076211353316
vertex -0.7500000000000009 1.2990381056766578 7.598076211353316
vertex 1.8369701987210297e-16 0 8
endloop
endfacet
facet normal 0.25056280708573203 -0.9351131265310294 -0.25056280708573136
outer loop
vertex -1.5000000000000013 2.598076211353315 5
vertex -5.51091059616309e-16 3 5
vertex -4.772588574262082e-16 2.598076211353316 6.5
endloop
endfacet
facet normal 0.25056280708573203 -0.9351131265310294 -0.25056280708573136
outer loop
vertex -1.5000000000000013 2.598076211353315 5
vertex -4.772588574262082e-16 2.598076211353316 6.5
vertex -1.2990381056766591 2.2499999999999996 6.5
endloop
endfacet
facet normal 0.1861567878973859 -0.6947465906068658 -0.6947465906068656
outer loop
vertex -1.2990381056766591 2.2499999999999996 6.5
vertex -4.772588574262082e-16 2.598076211353316 6.5
vertex -2.7554552980815453e-16 1.5000000000000004 7.598076211353316
endloop
endfacet
facet normal 0.1861567878973859 -0.6947465906068658 -0.6947465906068656
outer loop
vertex -1.2990381056766591 2.2499999999999996 6.5
vertex -2.7554552980815453e-16 1.5000000000000004 7.598076211353316
vertex -0.7500000000000009 1.2990381056766578 7.598076211353316
endloop
endfacet
facet normal 0.06918418399436407 -0.25819888974716054 -0.9636113749942804
outer loop
vertex -0.7500000000000009 1.2990381056766578 7.598076211353316
vertex -2.7554552980815453e-16 1.5000000000000004 7.598076211353316
vertex 1.8369701987210297e-16 0 8
endloop
endfacet
facet normal -0.2505628070857316 -0.9351131265310293 -0.2505628070857315
outer loop
vertex -5.51091059616309e-16 3 5
vertex 1.5000000000000004 2.598076211353316 5
vertex 1.2990381056766584 2.25 6.5
endloop
endfacet
facet normal -0.2505628070857316 -0.9351131265310293 -0.2505628070857315
outer loop
vertex -5.51091059616309e-16 3 5
vertex 1.2990381056766584 2.25 6.5
vertex -4.772588574262082e-16 2.598076211353316 6.5
endloop
endfacet
facet normal -0.1861567878973856 -0.6947465906068658 -0.6947465906068656
outer loop
vertex -4.772588574262082e-16 2.598076211353316 6.5
vertex 1.2990381056766584 2.25 6.5
vertex 0.7500000000000004 1.2990381056766582 7.598076211353316
endloop
endfacet
facet normal -0.1861567878973856 -0.6947465906068658 -0.6947465906068656
outer loop
vertex -4.772588574262082e-16 2.598076211353316 6.5
vertex 0.7500000000000004 1.2990381056766582 7.598076211353316
vertex -2.7554552980815453e-16 1.5000000000000004 7.598076211353316
endloop
endfacet
facet normal -0.06918418399436498 -0.2581988897471606 -0.9636113749942803
outer loop
vertex -2.7554552980815453e-16 1.5000000000000004 7.598076211353316
vertex 0.7500000000000004 1.2990381056766582 7.598076211353316
vertex 1.8369701987210297e-16 0 8
endloop
endfacet
facet normal -0.6845503194452977 -0.6845503194452979 -0.2505628070857316
outer loop
vertex 1.5000000000000004 2.598076211353316 5
vertex 2.598076211353315 1.5000000000000013 5
vertex 2.2499999999999996 1.2990381056766591 6.5
endloop
endfacet
facet normal -0.6845503194452977 -0.6845503194452979 -0.2505628070857316
outer loop
vertex 1.5000000000000004 2.598076211353316 5
vertex 2.2499999999999996 1.2990381056766591 6.5
vertex 1.2990381056766584 2.25 6.5
endloop
endfacet
facet normal -0.5085898027094803 -0.5085898027094808 -0.6947465906068654
outer loop
vertex 1.2990381056766584 2.25 6.5
vertex 2.2499999999999996 1.2990381056766591 6.5
vertex 1.2990381056766578 0.7500000000000009 7.598076211353316
endloop
endfacet
facet normal -0.5085898027094803 -0.5085898027094808 -0.6947465906068654
outer loop
vertex 1.2990381056766584 2.25 6.5
vertex 1.2990381056766578 0.7500000000000009 7.598076211353316
vertex 0.7500000000000004 1.2990381056766582 7.598076211353316
endloop
endfacet
facet normal -0.18901470575279686 -0.18901470575279686 -0.9636113749942802
outer loop
vertex 0.7500000000000004 1.2990381056766582 7.598076211353316
vertex 1.2990381056766578 0.7500000000000009 7.598076211353316
vertex 1.8369701987210297e-16 0 8
endloop
endfacet
facet normal -0.9351131265310293 -0.25056280708573203 -0.2505628070857316
outer loop
vertex 2.598076211353315 1.5000000000000013 5
vertex 3 0 5
vertex 2.598076211353316 0 6.5
endloop
endfacet
facet normal -0.9351131265310293 -0.25056280708573203 -0.2505628070857316
outer loop
vertex 2.598076211353315 1.5000000000000013 5
vertex 2.598076211353316 0 6.5
vertex 2.2499999999999996 1.2990381056766591 6.5
endloop
endfacet
facet normal -0.6947465906068658 -0.1861567878973864 -0.6947465906068654
outer loop
vertex 2.2499999999999996 1.2990381056766591 6.5
vertex 2.598076211353316 0 6.5
vertex 1.5000000000000004 0 7.598076211353316
endloop
endfacet
facet normal -0.6947465906068658 -0.1861567878973864 -0.6947465906068654
outer loop
vertex 2.2499999999999996 1.2990381056766591 6.5
vertex 1.5000000000000004 0 7.598076211353316
vertex 1.2990381056766578 0.7500000000000009 7.598076211353316
endloop
endfacet
facet normal -0.2581988897471614 -0.06918418399436495 -0.9636113749942801
outer loop
vertex 1.2990381056766578 0.7500000000000009 7.598076211353316
vertex 1.5000000000000004 0 7.598076211353316
vertex 1.8369701987210297e-16 0 8
endloop
endfacet
facet normal 0 0 -1
outer loop
vertex 9.999999999999998 10 5
vertex 9.999999999999998 3 5
vertex -10.000000000000002 3 5
endloop
endfacet
facet normal 0 0 -1
outer loop
vertex 9.999999999999998 10 5
vertex -10.000000000000002 3 5
vertex -10.000000000000002 9.999999999999998 5
endloop
endfacet
facet normal 0 0 -1
outer loop
vertex -5.51091059616309e-16 3 5
vertex -1.5000000000000013 2.598076211353315 5
vertex -10 2.598076211353315 5
endloop
endfacet
facet normal 0 0 -1
outer loop
vertex -5.51091059616309e-16 3 5
vertex -10 2.598076211353315 5
vertex -10.000000000000002 3 5
endloop
endfacet
facet normal 0 0 -1
outer loop
vertex 9.999999999999998 3 5
vertex 9.999999999999998 2.598076211353315 5
vertex 1.5000000000000004 2.598076211353316 5
endloop
endfacet
facet normal 0 0 -1
outer loop
vertex 9.999999999999998 3 5
vertex 1.5000000000000004 2.598076211353316 5
vertex -5.51091059616309e-16 3 5
endloop
endfacet
facet normal 0 0 -1
outer loop
vertex -1.5000000000000013 2.598076211353315 5
vertex -2.5980762113533165 1.4999999999999991 5
vertex -10 1.4999999999999991 5
endloop
endfacet
facet normal 0 0 -1
outer loop
vertex -1.5000000000000013 2.598076211353315 5
vertex -10 1.4999999999999991 5
vertex -10 2.598076211353315 5
endloop
endfacet
facet normal 0 0 -1
outer loop
vertex 9.999999999999998 2.598076211353315 5
vertex 9.999999999999998 1.4999999999999991 5
vertex 2.598076211353315 1.5000000000000013 5
endloop
endfacet
facet normal 0 0 -1
outer loop
vertex 9.999999999999998 2.598076211353315 5
vertex 2.598076211353315 1.5000000000000013 5
vertex 1.5000000000000004 2.598076211353316 5
endloop
endfacet
facet normal 0 0 -1
outer loop
vertex -2.5980762113533165 1.4999999999999991 5
vertex -3 -3.6739403974420594e-16 5
vertex -10 -3.6739403974420594e-16 5
endloop
endfacet
facet normal 0 0 -1
outer loop
vertex -2.5980762113533165 1.4999999999999991 5
vertex -10 -3.6739403974420594e-16 5
vertex -10 1.4999999999999991 5
endloop
endfacet
facet normal 0 0 -1
outer loop
vertex 9.999999999999998 1.4999999999999991 5
vertex 9.999999999999998 -3.6739403974420594e-16 5
vertex 3 0 5
endloop
endfacet
facet normal 0 0 -1
outer loop
vertex 9.999999999999998 1.4999999999999991 5
vertex 3 0 5
vertex 2.598076211353315 1.5000000000000013 5
endloop
endfacet
facet normal 0 0 -1
outer loop
vertex -3 -3.6739403974420594e-16 5
vertex -2.598076211353316 -1.4999999999999998 5
vertex -10 -1.4999999999999998 5
endloop
endfacet
facet normal 0 0 -1
outer loop
vertex -3 -3.6739403974420594e-16 5
vertex -10 -1.4999999999999998 5
vertex -10 -3.6739403974420594e-16 5
endloop
endfacet
facet normal 0 0 -1
outer loop
vertex 9.999999999999998 -3.6739403974420594e-16 5
vertex 10 -1.4999999999999998 5
vertex 2.598076211353316 -1.4999999999999998 5
endloop
endfacet
facet normal 0 0 -1
outer loop
vertex 9.999999999999998 -3.6739403974420594e-16 5
vertex 2.598076211353316 -1.4999999999999998 5
vertex 3 0 5
endloop
endfacet
facet normal 0 0 -1
outer loop
vertex -2.598076211353316 -1.4999999999999998 5
vertex -1.4999999999999993 -2.598076211353316 5
vertex -10 -2.598076211353316 5
endloop
endfacet
facet normal 0 0 -1
outer loop
vertex -2.598076211353316 -1.4999999999999998 5
vertex -10 -2.598076211353316 5
vertex -10 -1.4999999999999998 5
endloop
endfacet
facet normal 0 0 -1
outer loop
vertex 10 -1.4999999999999998 5
vertex 10 -2.598076211353316 5
vertex 1.5000000000000004 -2.598076211353316 5
endloop
endfacet
facet normal 0 0 -1
outer loop
vertex 10 -1.4999999999999998 5
vertex 1.5000000000000004 -2.598076211353316 5
vertex 2.598076211353316 -1.4999999999999998 5
endloop
endfacet
facet normal 0 0 -1
outer loop
vertex -1.4999999999999993 -2.598076211353316 5
vertex 1.8369701987210297e-16 -3 5
vertex -10 -3 5
endloop
endfacet
facet normal 0 0 -1
outer loop
vertex -1.4999999999999993 -2.598076211353316 5
vertex -10 -3 5
vertex -10 -2.598076211353316 5
endloop
endfacet
facet normal 0 0 -1
outer loop
vertex 10 -2.598076211353316 5
vertex 10 -3 5
vertex 1.8369701987210297e-16 -3 5
endloop
endfacet
facet normal 0 0 -1
outer loop
vertex 10 -2.598076211353316 5
vertex 1.8369701987210297e-16 -3 5
vertex 1.5000000000000004 -2.598076211353316 5
endloop
endfacet
facet normal 0 0 -1
outer loop
vertex 10 -3 5
vertex 10 -10 5
vertex -10 -10.000000000000002 5
endloop
endfacet
facet normal 0 0 -1
outer loop
vertex 10 -3 5
vertex -10 -10.000000000000002 5
vertex -10 -3 5
endloop
endfacet
facet normal -1 0 0
outer loop
vertex 20 -10 -10
vertex 20 -10 10
vertex 20 10 10
endloop
endfacet
facet normal -1 0 0
outer loop
vertex 20 -10 -10
vertex 20 10 10
vertex 20 10 -10
endloop
endfacet
facet normal 1 0 0
outer loop
vertex 40 -10 -10
vertex 40 10 -10
vertex 40 10 10
endloop
endfacet
facet normal 1 0 0
outer loop
vertex 40 -10 -10
vertex 40 10 10
vertex 40 -10 10
endloop
endfacet
facet normal 0 0 -1
outer loop
vertex 20 -10 -10
vertex 20 10 -10
vertex 40 10 -10
endloop
endfacet
facet normal 0 0 -1
outer loop
vertex 20 -10 -10
vertex 40 10 -10
vertex 40 -10 -10
endloop
endfacet
endsolid csg.js
